<?xml version="1.0" encoding="UTF-8" standalone="no"?>
<!-- Generated by IcoMoon.io -->

<svg
   xmlns:dc="http://purl.org/dc/elements/1.1/"
   xmlns:cc="http://creativecommons.org/ns#"
   xmlns:rdf="http://www.w3.org/1999/02/22-rdf-syntax-ns#"
   xmlns:svg="http://www.w3.org/2000/svg"
   xmlns="http://www.w3.org/2000/svg"
   xmlns:sodipodi="http://sodipodi.sourceforge.net/DTD/sodipodi-0.dtd"
   xmlns:inkscape="http://www.inkscape.org/namespaces/inkscape"
   version="1.1"
   width="576"
   height="512"
   viewBox="0 0 576 512"
   id="svg11"
   sodipodi:docname="images.svg"
   inkscape:version="0.92.4 (5da689c313, 2019-01-14)">
  <metadata
     id="metadata17">
    <rdf:RDF>
      <cc:Work
         rdf:about="">
        <dc:format>image/svg+xml</dc:format>
        <dc:type
           rdf:resource="http://purl.org/dc/dcmitype/StillImage" />
      </cc:Work>
    </rdf:RDF>
  </metadata>
  <defs
     id="defs15" />
  <sodipodi:namedview
     pagecolor="#ffffff"
     bordercolor="#666666"
     borderopacity="1"
     objecttolerance="10"
     gridtolerance="10"
     guidetolerance="10"
     inkscape:pageopacity="0"
     inkscape:pageshadow="2"
     inkscape:window-width="1680"
     inkscape:window-height="985"
     id="namedview13"
     showgrid="false"
     inkscape:zoom="0.4609375"
     inkscape:cx="5.9661017"
     inkscape:cy="256"
     inkscape:window-x="0"
     inkscape:window-y="36"
     inkscape:window-maximized="1"
     inkscape:current-layer="svg11" />
  <title
     id="title2" />
  <g
     id="icomoon-ignore" />
  <path
     d="M544 64h-32v-32c0-17.6-14.4-32-32-32h-448c-17.6 0-32 14.4-32 32v384c0 17.6 14.4 32 32 32h32v32c0 17.6 14.4 32 32 32h448c17.6 0 32-14.4 32-32v-384c0-17.6-14.4-32-32-32zM64 96v320h-31.943c-0.020-0.017-0.041-0.038-0.057-0.058v-383.885c0.017-0.020 0.038-0.041 0.057-0.057h447.885c0.020 0.017 0.041 0.038 0.058 0.058v31.942h-384c-17.6 0-32 14.4-32 32v0zM544 479.942c-0.017 0.020-0.038 0.041-0.058 0.058h-447.885c-0.020-0.017-0.041-0.038-0.057-0.058v-383.885c0.017-0.020 0.038-0.041 0.057-0.057h447.885c0.020 0.017 0.041 0.038 0.058 0.058v383.884z"
     id="path5"
     style="fill:#808080;fill-opacity:1" />
  <path
     d="M480 176c0 26.51-21.49 48-48 48s-48-21.49-48-48 21.49-48 48-48 48 21.49 48 48z"
     id="path7"
     style="fill:#808080" />
  <path
     d="M512 448h-384v-64l112-192 128 160h32l112-96z"
     id="path9"
     style="fill:#808080" />
</svg>
